<?xml version="1.0" encoding="iso-8859-1"?>
<!-- Generator: Adobe Illustrator 19.0.0, SVG Export Plug-In . SVG Version: 6.00 Build 0)  -->
<svg version="1.1" id="Layer_1" xmlns="http://www.w3.org/2000/svg" xmlns:xlink="http://www.w3.org/1999/xlink" x="0px" y="0px"
	 viewBox="0 0 490 490" style="enable-background:new 0 0 490 490;" xml:space="preserve">
<g>
	<g>
		<path d="M479.405,330c-9.7-5-21.7-1.3-26.8,8.1c-37.4,69.7-112.1,113.1-194.8,113.1c-120.3,0-218.3-92.5-218.3-206.2
			s98-206.2,218.4-206.2c48.1,0,112.9,20.3,149.3,65.8c25.3,31.6,32.6,69.8,21.6,113.6c-12,48-34.5,81.4-66.8,99.2
			c-19.1,10.6-37.3,13-48.6,13.1c1.5-13.7,6.7-44.1,23.2-110.7c13.2-53.3,27.1-103.3,27.2-103.8c2.9-10.3-3.3-21-13.9-23.8
			s-21.4,3.3-24.3,13.6c-0.1,0.3-4.1,14.7-9.8,36.2c-12.6-25.4-33-44.7-59.4-52.9c-60.7-18.9-130.1,28-155,104.7
			c-24.8,76.7,4.2,154.2,65,173.1c36.3,11.3,75.7-0.9,106.8-29c-0.2,8,0.9,22,14.2,27.6c14.5,6.1,51.3,6.8,87.3-10.8
			c31.5-15.4,73-49.9,92.4-127.2c13.8-55.1,3.8-105.9-28.9-146.8c-20.3-25.3-49.1-46.3-83.2-60.7c-30.7-12.9-65.3-20-97.3-20
			c-68.8,0-133.4,25.4-182.1,71.5c-48.7,46.3-75.6,107.9-75.6,173.5s26.9,127.2,75.8,173.5c48.7,46.1,113.4,71.5,182.1,71.5
			c48.4,0,95.6-12.8,136.4-37.1c39.8-23.6,72.1-57.1,93.4-96.8C492.805,346.7,489.105,335,479.405,330z M178.805,328.8
			c-39.9-12.4-57.6-67.6-39.6-123.2c18-55.7,65-90.8,104.9-78.4c39.9,12.4,57.6,67.6,39.6,123.2
			C265.605,306.1,218.705,341.2,178.805,328.8z"/>
	</g>
</g>
<g>
</g>
<g>
</g>
<g>
</g>
<g>
</g>
<g>
</g>
<g>
</g>
<g>
</g>
<g>
</g>
<g>
</g>
<g>
</g>
<g>
</g>
<g>
</g>
<g>
</g>
<g>
</g>
<g>
</g>
</svg>
